<mxfile host="app.diagrams.net" modified="2024-01-19T14:28:19.579Z" agent="Mozilla/5.0 (Windows NT 10.0; Win64; x64) AppleWebKit/537.36 (KHTML, like Gecko) Chrome/120.0.0.0 Safari/537.36" etag="Ha2ns6Zlrqm4GcsJBuDl" version="22.1.21" type="device">
  <diagram name="Schema" id="PyPxVqWp-ixs-hh4TuzZ">
    <mxGraphModel dx="1050" dy="557" grid="1" gridSize="10" guides="1" tooltips="1" connect="1" arrows="1" fold="1" page="1" pageScale="1" pageWidth="827" pageHeight="1169" math="0" shadow="0">
      <root>
        <mxCell id="0" />
        <mxCell id="1" parent="0" />
        <mxCell id="xezq893f7kdis_2Y9lIG-1" value="DNA&lt;br&gt;&lt;br&gt;(Acido Desossiribonucleico)&lt;br&gt;" style="rounded=0;whiteSpace=wrap;html=1;" parent="1" vertex="1">
          <mxGeometry x="40" y="640" width="190" height="60" as="geometry" />
        </mxCell>
        <mxCell id="xezq893f7kdis_2Y9lIG-2" value="Dove: Nucleo delle cellule&lt;br&gt;&lt;br&gt;Come: All&#39;interno dei nucleotidi (zucchero + base azotata)&lt;br&gt;&lt;br&gt;Contiene le informazioni di base&lt;br&gt;&lt;br&gt;Cosa:&lt;br&gt;&lt;br&gt;- Gruppo fosfato&lt;br&gt;- Molecola di zucchero (desossiribosio = zucchero senza una molecola di ossigeno)&lt;br&gt;- Base azotata" style="rounded=0;whiteSpace=wrap;html=1;" parent="1" vertex="1">
          <mxGeometry x="10" y="780" width="240" height="220" as="geometry" />
        </mxCell>
        <mxCell id="xezq893f7kdis_2Y9lIG-3" value="" style="endArrow=none;html=1;rounded=0;exitX=0.457;exitY=0.004;exitDx=0;exitDy=0;exitPerimeter=0;" parent="1" source="xezq893f7kdis_2Y9lIG-2" target="xezq893f7kdis_2Y9lIG-1" edge="1">
          <mxGeometry width="50" height="50" relative="1" as="geometry">
            <mxPoint x="130" y="820" as="sourcePoint" />
            <mxPoint x="180" y="770" as="targetPoint" />
          </mxGeometry>
        </mxCell>
        <mxCell id="xezq893f7kdis_2Y9lIG-4" value="Adenina" style="rounded=0;whiteSpace=wrap;html=1;" parent="1" vertex="1">
          <mxGeometry x="360" y="750" width="80" height="40" as="geometry" />
        </mxCell>
        <mxCell id="xezq893f7kdis_2Y9lIG-5" value="Timina" style="rounded=0;whiteSpace=wrap;html=1;" parent="1" vertex="1">
          <mxGeometry x="360" y="810" width="80" height="40" as="geometry" />
        </mxCell>
        <mxCell id="xezq893f7kdis_2Y9lIG-6" value="Guanina" style="rounded=0;whiteSpace=wrap;html=1;" parent="1" vertex="1">
          <mxGeometry x="360" y="870" width="80" height="40" as="geometry" />
        </mxCell>
        <mxCell id="xezq893f7kdis_2Y9lIG-7" value="Citosina" style="rounded=0;whiteSpace=wrap;html=1;" parent="1" vertex="1">
          <mxGeometry x="360" y="940" width="80" height="40" as="geometry" />
        </mxCell>
        <mxCell id="xezq893f7kdis_2Y9lIG-8" value="" style="endArrow=none;html=1;rounded=0;exitX=0.993;exitY=0.344;exitDx=0;exitDy=0;exitPerimeter=0;entryX=0;entryY=0.75;entryDx=0;entryDy=0;" parent="1" source="xezq893f7kdis_2Y9lIG-2" target="xezq893f7kdis_2Y9lIG-4" edge="1">
          <mxGeometry width="50" height="50" relative="1" as="geometry">
            <mxPoint x="330" y="830" as="sourcePoint" />
            <mxPoint x="380" y="780" as="targetPoint" />
          </mxGeometry>
        </mxCell>
        <mxCell id="xezq893f7kdis_2Y9lIG-9" value="" style="endArrow=none;html=1;rounded=0;entryX=0;entryY=0.75;entryDx=0;entryDy=0;" parent="1" source="xezq893f7kdis_2Y9lIG-2" target="xezq893f7kdis_2Y9lIG-5" edge="1">
          <mxGeometry width="50" height="50" relative="1" as="geometry">
            <mxPoint x="279" y="852" as="sourcePoint" />
            <mxPoint x="370" y="790" as="targetPoint" />
          </mxGeometry>
        </mxCell>
        <mxCell id="xezq893f7kdis_2Y9lIG-10" value="" style="endArrow=none;html=1;rounded=0;entryX=0;entryY=0.5;entryDx=0;entryDy=0;" parent="1" source="xezq893f7kdis_2Y9lIG-2" target="xezq893f7kdis_2Y9lIG-6" edge="1">
          <mxGeometry width="50" height="50" relative="1" as="geometry">
            <mxPoint x="289" y="862" as="sourcePoint" />
            <mxPoint x="380" y="800" as="targetPoint" />
          </mxGeometry>
        </mxCell>
        <mxCell id="xezq893f7kdis_2Y9lIG-11" value="" style="endArrow=none;html=1;rounded=0;exitX=1.009;exitY=0.713;exitDx=0;exitDy=0;exitPerimeter=0;entryX=0;entryY=0.5;entryDx=0;entryDy=0;" parent="1" source="xezq893f7kdis_2Y9lIG-2" target="xezq893f7kdis_2Y9lIG-7" edge="1">
          <mxGeometry width="50" height="50" relative="1" as="geometry">
            <mxPoint x="299" y="872" as="sourcePoint" />
            <mxPoint x="390" y="810" as="targetPoint" />
          </mxGeometry>
        </mxCell>
        <mxCell id="xezq893f7kdis_2Y9lIG-12" value="RNA&lt;br&gt;(Acido Ribonucleico)&lt;br&gt;&lt;br&gt;Cosa:&lt;br&gt;&lt;br&gt;- Nucleotidi&lt;br&gt;- Molecola di zucchero (ribosio)&lt;br&gt;&lt;br&gt;Contiene le informazioni genetiche del DNA per trasmetterlo alle altre cellule" style="rounded=0;whiteSpace=wrap;html=1;" parent="1" vertex="1">
          <mxGeometry x="470" y="770" width="190" height="180" as="geometry" />
        </mxCell>
        <mxCell id="xezq893f7kdis_2Y9lIG-18" value="Adenina" style="rounded=0;whiteSpace=wrap;html=1;" parent="1" vertex="1">
          <mxGeometry x="747" y="730" width="80" height="40" as="geometry" />
        </mxCell>
        <mxCell id="xezq893f7kdis_2Y9lIG-19" value="Uracile" style="rounded=0;whiteSpace=wrap;html=1;" parent="1" vertex="1">
          <mxGeometry x="747" y="790" width="80" height="40" as="geometry" />
        </mxCell>
        <mxCell id="xezq893f7kdis_2Y9lIG-20" value="Guanina" style="rounded=0;whiteSpace=wrap;html=1;" parent="1" vertex="1">
          <mxGeometry x="747" y="850" width="80" height="40" as="geometry" />
        </mxCell>
        <mxCell id="xezq893f7kdis_2Y9lIG-21" value="Citosina" style="rounded=0;whiteSpace=wrap;html=1;" parent="1" vertex="1">
          <mxGeometry x="747" y="920" width="80" height="40" as="geometry" />
        </mxCell>
        <mxCell id="xezq893f7kdis_2Y9lIG-22" value="" style="endArrow=none;html=1;rounded=0;exitX=0.993;exitY=0.344;exitDx=0;exitDy=0;exitPerimeter=0;entryX=0;entryY=0.75;entryDx=0;entryDy=0;" parent="1" target="xezq893f7kdis_2Y9lIG-18" edge="1">
          <mxGeometry width="50" height="50" relative="1" as="geometry">
            <mxPoint x="655" y="836" as="sourcePoint" />
            <mxPoint x="767" y="760" as="targetPoint" />
          </mxGeometry>
        </mxCell>
        <mxCell id="xezq893f7kdis_2Y9lIG-23" value="" style="endArrow=none;html=1;rounded=0;entryX=0;entryY=0.75;entryDx=0;entryDy=0;" parent="1" target="xezq893f7kdis_2Y9lIG-19" edge="1">
          <mxGeometry width="50" height="50" relative="1" as="geometry">
            <mxPoint x="657" y="841" as="sourcePoint" />
            <mxPoint x="757" y="770" as="targetPoint" />
          </mxGeometry>
        </mxCell>
        <mxCell id="xezq893f7kdis_2Y9lIG-24" value="" style="endArrow=none;html=1;rounded=0;entryX=0;entryY=0.5;entryDx=0;entryDy=0;" parent="1" target="xezq893f7kdis_2Y9lIG-20" edge="1">
          <mxGeometry width="50" height="50" relative="1" as="geometry">
            <mxPoint x="657" y="870" as="sourcePoint" />
            <mxPoint x="767" y="780" as="targetPoint" />
          </mxGeometry>
        </mxCell>
        <mxCell id="xezq893f7kdis_2Y9lIG-25" value="" style="endArrow=none;html=1;rounded=0;exitX=1.009;exitY=0.713;exitDx=0;exitDy=0;exitPerimeter=0;entryX=0;entryY=0.5;entryDx=0;entryDy=0;" parent="1" target="xezq893f7kdis_2Y9lIG-21" edge="1">
          <mxGeometry width="50" height="50" relative="1" as="geometry">
            <mxPoint x="659" y="917" as="sourcePoint" />
            <mxPoint x="777" y="790" as="targetPoint" />
          </mxGeometry>
        </mxCell>
        <mxCell id="xezq893f7kdis_2Y9lIG-26" value="Tipi di RNA" style="rounded=0;whiteSpace=wrap;html=1;" parent="1" vertex="1">
          <mxGeometry x="490" y="1000" width="120" height="60" as="geometry" />
        </mxCell>
        <mxCell id="xezq893f7kdis_2Y9lIG-27" value="mRNA&lt;br&gt;&lt;br&gt;(RNA Messaggero)&lt;br&gt;&lt;br&gt;Sintesi delle proteine quando avviene la comunicazione tra le cellule con nucleo o meno" style="rounded=0;whiteSpace=wrap;html=1;" parent="1" vertex="1">
          <mxGeometry x="260" y="1100" width="190" height="120" as="geometry" />
        </mxCell>
        <mxCell id="xezq893f7kdis_2Y9lIG-28" value="tRNA&lt;br&gt;&lt;br&gt;Traduzione dei ribosomi&lt;br&gt;&lt;br&gt;Caricamento elettrico delle molecole e scambio di informazioni tramite elettroni" style="rounded=0;whiteSpace=wrap;html=1;" parent="1" vertex="1">
          <mxGeometry x="480" y="1100" width="155" height="130" as="geometry" />
        </mxCell>
        <mxCell id="xezq893f7kdis_2Y9lIG-29" value="rRNA&lt;br&gt;&lt;br&gt;Sintesi dei ribosomi (proteine ripiegate nella fase di sintesi proteica)&lt;br&gt;&lt;br&gt;" style="rounded=0;whiteSpace=wrap;html=1;" parent="1" vertex="1">
          <mxGeometry x="670" y="1100" width="140" height="110" as="geometry" />
        </mxCell>
        <mxCell id="xezq893f7kdis_2Y9lIG-30" value="Struttura:&lt;br&gt;&lt;br&gt;Codone = Tripletta di amminoacidi (zuccheri) - sintesi proteica&lt;br&gt;&lt;br&gt;Amminoacidi = Molecole organiche composte di ossigeno e idrogeno per zuccheri&amp;nbsp;&lt;br&gt;&lt;br&gt;Gene = Sequenza di nucletodi per sintesi proteine (Informazioni)&lt;br&gt;&lt;br&gt;Struttura genetica = Insieme di come costruire le proteine e combinare basi azotate con amminoacidi" style="rounded=0;whiteSpace=wrap;html=1;" parent="1" vertex="1">
          <mxGeometry x="40" y="1070" width="200" height="260" as="geometry" />
        </mxCell>
        <mxCell id="xezq893f7kdis_2Y9lIG-31" value="" style="endArrow=classic;startArrow=classic;html=1;rounded=0;exitX=0.432;exitY=0.027;exitDx=0;exitDy=0;exitPerimeter=0;entryX=0.5;entryY=1;entryDx=0;entryDy=0;" parent="1" source="xezq893f7kdis_2Y9lIG-30" target="xezq893f7kdis_2Y9lIG-2" edge="1">
          <mxGeometry width="50" height="50" relative="1" as="geometry">
            <mxPoint x="70" y="1010" as="sourcePoint" />
            <mxPoint x="120" y="960" as="targetPoint" />
          </mxGeometry>
        </mxCell>
        <mxCell id="xezq893f7kdis_2Y9lIG-32" value="" style="endArrow=none;html=1;rounded=0;exitX=0.5;exitY=0;exitDx=0;exitDy=0;entryX=0;entryY=0.5;entryDx=0;entryDy=0;" parent="1" source="xezq893f7kdis_2Y9lIG-27" target="xezq893f7kdis_2Y9lIG-26" edge="1">
          <mxGeometry width="50" height="50" relative="1" as="geometry">
            <mxPoint x="490" y="1030" as="sourcePoint" />
            <mxPoint x="480" y="1030" as="targetPoint" />
          </mxGeometry>
        </mxCell>
        <mxCell id="xezq893f7kdis_2Y9lIG-33" value="" style="endArrow=none;html=1;rounded=0;exitX=0.5;exitY=0;exitDx=0;exitDy=0;entryX=0.5;entryY=1;entryDx=0;entryDy=0;" parent="1" source="xezq893f7kdis_2Y9lIG-28" target="xezq893f7kdis_2Y9lIG-26" edge="1">
          <mxGeometry width="50" height="50" relative="1" as="geometry">
            <mxPoint x="365" y="1110" as="sourcePoint" />
            <mxPoint x="500" y="1040" as="targetPoint" />
          </mxGeometry>
        </mxCell>
        <mxCell id="xezq893f7kdis_2Y9lIG-34" value="" style="endArrow=none;html=1;rounded=0;exitX=0.5;exitY=0;exitDx=0;exitDy=0;entryX=1;entryY=0.5;entryDx=0;entryDy=0;" parent="1" source="xezq893f7kdis_2Y9lIG-29" target="xezq893f7kdis_2Y9lIG-26" edge="1">
          <mxGeometry width="50" height="50" relative="1" as="geometry">
            <mxPoint x="375" y="1120" as="sourcePoint" />
            <mxPoint x="510" y="1050" as="targetPoint" />
          </mxGeometry>
        </mxCell>
      </root>
    </mxGraphModel>
  </diagram>
</mxfile>
